REM DIRINDEX 1\4,1\2\5,1\2\6,1\3\7,1\3\8
REM DIRNAME folder01,folder02,folder03,folder04,folder05,folder06,folder07,folder08
TITLE ""
FILE "073_Day37_Check2_Phrases.mp3" MP3
  TRACK 01 AUDIO
    TITLE "0:"
    INDEX 01 00:00:00
  TRACK 02 AUDIO
    TITLE "4:cjc124_2379"
    INDEX 01 00:00:33
  TRACK 03 AUDIO
    TITLE "0:"
    INDEX 01 00:01:58
  TRACK 04 AUDIO
    TITLE "5:cjc124_2380"
    INDEX 01 00:02:18
  TRACK 05 AUDIO
    TITLE "0:"
    INDEX 01 00:04:56
  TRACK 06 AUDIO
    TITLE "6:cjc124_2381"
    INDEX 01 00:04:74
  TRACK 07 AUDIO
    TITLE "0:"
    INDEX 01 00:06:67
  TRACK 08 AUDIO
    TITLE "5:cjc124_2382"
    INDEX 01 00:07:29
  TRACK 09 AUDIO
    TITLE "0:"
    INDEX 01 00:09:12
  TRACK 10 AUDIO
    TITLE "6:cjc124_2383"
    INDEX 01 00:09:32
  TRACK 11 AUDIO
    TITLE "0:"
    INDEX 01 00:11:44
  TRACK 12 AUDIO
    TITLE "5:cjc124_2384"
    INDEX 01 00:12:07
  TRACK 13 AUDIO
    TITLE "0:"
    INDEX 01 00:14:15
  TRACK 14 AUDIO
    TITLE "6:cjc124_2385"
    INDEX 01 00:14:31
  TRACK 15 AUDIO
    TITLE "0:"
    INDEX 01 00:16:28
  TRACK 16 AUDIO
    TITLE "5:cjc124_2386"
    INDEX 01 00:16:69
  TRACK 17 AUDIO
    TITLE "0:"
    INDEX 01 00:19:42
  TRACK 18 AUDIO
    TITLE "6:cjc124_2387"
    INDEX 01 00:19:63
  TRACK 19 AUDIO
    TITLE "0:"
    INDEX 01 00:22:46
  TRACK 20 AUDIO
    TITLE "5:cjc124_2388"
    INDEX 01 00:23:08
  TRACK 21 AUDIO
    TITLE "0:"
    INDEX 01 00:26:03
  TRACK 22 AUDIO
    TITLE "6:cjc124_2389"
    INDEX 01 00:26:22
  TRACK 23 AUDIO
    TITLE "0:"
    INDEX 01 00:28:45
  TRACK 24 AUDIO
    TITLE "5:cjc124_2390"
    INDEX 01 00:29:09
  TRACK 25 AUDIO
    TITLE "0:"
    INDEX 01 00:31:04
  TRACK 26 AUDIO
    TITLE "6:cjc124_2391"
    INDEX 01 00:31:24
  TRACK 27 AUDIO
    TITLE "0:"
    INDEX 01 00:33:01
  TRACK 28 AUDIO
    TITLE "5:cjc124_2392"
    INDEX 01 00:33:42
  TRACK 29 AUDIO
    TITLE "0:"
    INDEX 01 00:35:15
  TRACK 30 AUDIO
    TITLE "6:cjc124_2393"
    INDEX 01 00:35:39
  TRACK 31 AUDIO
    TITLE "0:"
    INDEX 01 00:37:18
  TRACK 32 AUDIO
    TITLE "5:cjc124_2394"
    INDEX 01 00:37:56
  TRACK 33 AUDIO
    TITLE "0:"
    INDEX 01 00:40:15
  TRACK 34 AUDIO
    TITLE "6:cjc124_2395"
    INDEX 01 00:40:34
  TRACK 35 AUDIO
    TITLE "0:"
    INDEX 01 00:42:55
  TRACK 36 AUDIO
    TITLE "5:cjc124_2396"
    INDEX 01 00:43:17
  TRACK 37 AUDIO
    TITLE "0:"
    INDEX 01 00:44:73
  TRACK 38 AUDIO
    TITLE "6:cjc124_2397"
    INDEX 01 00:45:16
  TRACK 39 AUDIO
    TITLE "0:"
    INDEX 01 00:46:33
  TRACK 40 AUDIO
    TITLE "5:cjc124_2398"
    INDEX 01 00:47:01
  TRACK 41 AUDIO
    TITLE "0:"
    INDEX 01 00:48:67
  TRACK 42 AUDIO
    TITLE "6:cjc124_2399"
    INDEX 01 00:49:14
  TRACK 43 AUDIO
    TITLE "0:"
    INDEX 01 00:50:48
  TRACK 44 AUDIO
    TITLE "5:cjc124_2400"
    INDEX 01 00:51:13
  TRACK 45 AUDIO
    TITLE "0:"
    INDEX 01 00:53:27
  TRACK 46 AUDIO
    TITLE "6:cjc124_2401"
    INDEX 01 00:53:49
  TRACK 47 AUDIO
    TITLE "0:"
    INDEX 01 00:55:61
  TRACK 48 AUDIO
    TITLE "5:cjc124_2402"
    INDEX 01 00:56:24
  TRACK 49 AUDIO
    TITLE "0:"
    INDEX 01 00:58:01
  TRACK 50 AUDIO
    TITLE "6:cjc124_2403"
    INDEX 01 00:58:22
  TRACK 51 AUDIO
    TITLE "0:"
    INDEX 01 01:00:00
  TRACK 52 AUDIO
    TITLE "5:cjc124_2404"
    INDEX 01 01:00:41
  TRACK 53 AUDIO
    TITLE "0:"
    INDEX 01 01:02:18
  TRACK 54 AUDIO
    TITLE "6:cjc124_2405"
    INDEX 01 01:02:36
  TRACK 55 AUDIO
    TITLE "0:"
    INDEX 01 01:04:09
  TRACK 56 AUDIO
    TITLE "5:cjc124_2406"
    INDEX 01 01:04:47
  TRACK 57 AUDIO
    TITLE "0:"
    INDEX 01 01:06:40
  TRACK 58 AUDIO
    TITLE "6:cjc124_2407"
    INDEX 01 01:06:53
  TRACK 59 AUDIO
    TITLE "0:"
    INDEX 01 01:08:13
  TRACK 60 AUDIO
    TITLE "5:cjc124_2408"
    INDEX 01 01:08:50
  TRACK 61 AUDIO
    TITLE "0:"
    INDEX 01 01:10:67
  TRACK 62 AUDIO
    TITLE "6:cjc124_2409"
    INDEX 01 01:11:11
  TRACK 63 AUDIO
    TITLE "0:"
    INDEX 01 01:13:22
  TRACK 64 AUDIO
    TITLE "5:cjc124_2410"
    INDEX 01 01:13:59
  TRACK 65 AUDIO
    TITLE "0:"
    INDEX 01 01:15:48
  TRACK 66 AUDIO
    TITLE "6:cjc124_2411"
    INDEX 01 01:15:64
  TRACK 67 AUDIO
    TITLE "0:"
    INDEX 01 01:17:39
